<svg width="25" height="25" viewBox="0 0 25 25" fill="none" xmlns="http://www.w3.org/2000/svg">
<path d="M12.495 2.25198C15.8333 2.25198 16.2252 2.26686 17.5446 2.32639C18.7649 2.38095 19.4246 2.58432 19.8661 2.75793C20.4514 2.98611 20.8681 3.25397 21.3046 3.69047C21.7411 4.12698 22.0139 4.54365 22.2371 5.12897C22.4058 5.57043 22.6141 6.23015 22.6687 7.45039C22.7282 8.76984 22.7431 9.1617 22.7431 12.5C22.7431 15.8383 22.7282 16.2301 22.6687 17.5496C22.6141 18.7698 22.4107 19.4296 22.2371 19.871C22.0089 20.4563 21.7411 20.873 21.3046 21.3095C20.8681 21.746 20.4514 22.0188 19.8661 22.2421C19.4246 22.4107 18.7649 22.619 17.5446 22.6736C16.2252 22.7331 15.8333 22.748 12.495 22.748C9.15675 22.748 8.76488 22.7331 7.44544 22.6736C6.2252 22.619 5.56548 22.4157 5.12401 22.2421C4.53869 22.0139 4.12202 21.746 3.68552 21.3095C3.24901 20.873 2.97619 20.4563 2.75298 19.871C2.58433 19.4296 2.37599 18.7698 2.32143 17.5496C2.2619 16.2301 2.24702 15.8383 2.24702 12.5C2.24702 9.1617 2.2619 8.76984 2.32143 7.45039C2.37599 6.23015 2.57937 5.57043 2.75298 5.12897C2.98115 4.54365 3.24901 4.12698 3.68552 3.69047C4.12202 3.25397 4.53869 2.98115 5.12401 2.75793C5.56548 2.58928 6.2252 2.38095 7.44544 2.32639C8.76488 2.2619 9.16171 2.25198 12.495 2.25198ZM12.495 0C9.10218 0 8.6756 0.0148809 7.34127 0.0744047C6.0119 0.133928 5.10417 0.347222 4.31052 0.654762C3.4871 0.972222 2.79266 1.40377 2.09821 2.09821C1.40377 2.79266 0.977183 3.49206 0.654762 4.31051C0.347222 5.10416 0.133929 6.0119 0.0744048 7.34623C0.014881 8.67559 0 9.10218 0 12.495C0 15.8879 0.014881 16.3145 0.0744048 17.6488C0.133929 18.9782 0.347222 19.8859 0.654762 20.6845C0.972222 21.5079 1.40377 22.2024 2.09821 22.8968C2.79266 23.5913 3.49206 24.0178 4.31052 24.3403C5.10417 24.6478 6.01191 24.8611 7.34623 24.9206C8.68056 24.9801 9.10218 24.995 12.5 24.995C15.8978 24.995 16.3194 24.9801 17.6538 24.9206C18.9831 24.8611 19.8909 24.6478 20.6895 24.3403C21.5129 24.0228 22.2073 23.5913 22.9018 22.8968C23.5962 22.2024 24.0228 21.503 24.3452 20.6845C24.6528 19.8909 24.8661 18.9831 24.9256 17.6488C24.9851 16.3145 25 15.8928 25 12.495C25 9.09722 24.9851 8.67559 24.9256 7.34127C24.8661 6.0119 24.6528 5.10416 24.3452 4.30555C24.0278 3.48214 23.5962 2.7877 22.9018 2.09325C22.2073 1.39881 21.5079 0.972222 20.6895 0.649801C19.8958 0.342262 18.9881 0.128968 17.6538 0.0694444C16.3145 0.0148809 15.8879 0 12.495 0Z" fill="white"/>
<path d="M12.4938 6.08008C8.95218 6.08008 6.0752 8.9521 6.0752 12.4987C6.0752 16.0453 8.94722 18.9174 12.4938 18.9174C16.0405 18.9174 18.9125 16.0453 18.9125 12.4987C18.9125 8.9521 16.0405 6.08008 12.4938 6.08008ZM12.4938 16.6604C10.1923 16.6604 8.32718 14.7954 8.32718 12.4938C8.32718 10.1922 10.1923 8.3271 12.4938 8.3271C14.7954 8.3271 16.6605 10.1922 16.6605 12.4938C16.6605 14.7954 14.7954 16.6604 12.4938 16.6604Z" fill="white"/>
<path d="M19.1662 7.32087C19.9933 7.32087 20.6639 6.65032 20.6639 5.82316C20.6639 4.99599 19.9933 4.32544 19.1662 4.32544C18.339 4.32544 17.6685 4.99599 17.6685 5.82316C17.6685 6.65032 18.339 7.32087 19.1662 7.32087Z" fill="white"/>
</svg>
