<svg width="48" height="30" viewBox="0 0 48 30" fill="none" xmlns="http://www.w3.org/2000/svg">
<path d="M4 18.4652C4.55556 18.4652 4.94444 18.2454 5.16667 17.8057C5.38889 17.3661 5.38889 16.9264 5.16667 16.4868C4.94444 16.0472 4.55556 15.8273 4 15.8273C3.44444 15.8273 3.05556 16.0472 2.83333 16.4868C2.61111 16.9264 2.61111 17.3661 2.83333 17.8057C3.05556 18.2454 3.44444 18.4652 4 18.4652ZM34.6875 17.2699C34.5486 17.0913 34.2813 16.7478 33.8854 16.2395C33.4896 15.7312 33.2014 15.3602 33.0208 15.1266C32.8403 14.8931 32.5764 14.5565 32.2292 14.1168C31.8819 13.6772 31.5868 13.3131 31.3438 13.0246C31.1007 12.7361 30.8194 12.4132 30.5 12.056C30.1806 11.6988 29.8681 11.3622 29.5625 11.0462L26.9583 13.9313C25.8056 15.2228 24.3576 15.8548 22.6146 15.8273C20.8715 15.7999 19.4444 15.1266 18.3333 13.8077C17.5417 12.8597 17.1493 11.7743 17.1562 10.5516C17.1632 9.32878 17.5694 8.25027 18.375 7.31602L22.0625 3.07067C21.7569 2.91954 21.4028 2.80619 21 2.73063C20.5972 2.65506 20.2674 2.61384 20.0104 2.60698C19.7535 2.60011 19.3611 2.60354 18.8333 2.61728C18.3056 2.63102 17.9653 2.63789 17.8125 2.63789C16.5347 2.63789 15.4375 3.09128 14.5208 3.99805L11.2292 7.25419H8V18.4652C8.06944 18.4652 8.21528 18.4618 8.4375 18.4549C8.65972 18.448 8.8125 18.448 8.89583 18.4549C8.97917 18.4618 9.11458 18.4755 9.30208 18.4961C9.48958 18.5167 9.63194 18.5477 9.72917 18.5889C9.82639 18.6301 9.94792 18.6885 10.0938 18.764C10.2396 18.8396 10.3681 18.9323 10.4792 19.0423L16.6667 25.0599C18.2639 26.585 19.8403 27.3475 21.3958 27.3475C22.4792 27.3475 23.3472 27.0246 24 26.3789C24.7917 26.6537 25.5729 26.5987 26.3438 26.214C27.1146 25.8293 27.6181 25.2454 27.8542 24.4623C28.8819 24.5447 29.7639 24.2425 30.5 23.5555C30.7778 23.3082 31.0278 22.9957 31.25 22.6178C31.4722 22.24 31.5694 21.8931 31.5417 21.5771C31.6806 21.7145 31.9792 21.7832 32.4375 21.7832C33.0347 21.7832 33.5694 21.6389 34.0417 21.3504C34.5139 21.0619 34.8576 20.6978 35.0729 20.2582C35.2882 19.8185 35.3715 19.3273 35.3229 18.7846C35.2743 18.242 35.0625 17.737 34.6875 17.2699ZM38 18.4652H40V7.91366H38.0625L34.7917 4.20413C33.875 3.15997 32.7014 2.63789 31.2708 2.63789H27.7917C26.5556 2.63789 25.5417 3.09814 24.75 4.01866L20.3958 9.02652C20.0069 9.47991 19.8125 9.99512 19.8125 10.5722C19.8125 11.1492 20 11.6644 20.375 12.1178C20.9722 12.8185 21.7361 13.1757 22.6667 13.1894C23.5972 13.2032 24.3681 12.8666 24.9792 12.1796L29 7.68697C29.3472 7.37097 29.7187 7.22328 30.1146 7.24389C30.5104 7.2645 30.8368 7.44997 31.0937 7.80032C31.3507 8.15066 31.4097 8.53879 31.2708 8.9647C31.4931 9.22574 31.8819 9.65852 32.4375 10.263C32.9931 10.8675 33.4097 11.3347 33.6875 11.6644C34.0903 12.159 34.6632 12.8837 35.4062 13.8386C36.1493 14.7935 36.5972 15.3739 36.75 15.58C37.4722 16.4868 37.8889 17.4485 38 18.4652ZM44 18.4652C44.5556 18.4652 44.9444 18.2454 45.1667 17.8057C45.3889 17.3661 45.3889 16.9264 45.1667 16.4868C44.9444 16.0472 44.5556 15.8273 44 15.8273C43.4444 15.8273 43.0556 16.0472 42.8333 16.4868C42.6111 16.9264 42.6111 17.3661 42.8333 17.8057C43.0556 18.2454 43.4444 18.4652 44 18.4652ZM48 6.59472V19.7842C48 20.1414 47.8681 20.4505 47.6042 20.7115C47.3403 20.9726 47.0278 21.1031 46.6667 21.1031H37.625C37.25 21.9961 36.6806 22.7277 35.9167 23.2979C35.1528 23.8681 34.2847 24.2219 33.3125 24.3592C32.8542 25.0187 32.2951 25.5786 31.6354 26.0388C30.9757 26.4991 30.2639 26.8117 29.5 26.9765C28.9167 27.7047 28.191 28.2646 27.3229 28.6561C26.4549 29.0477 25.5625 29.216 24.6458 29.161C23.8125 29.6282 22.9375 29.8995 22.0208 29.9751C21.1042 30.0506 20.2187 29.9545 19.3646 29.6865C18.5104 29.4186 17.6979 29.0511 16.9271 28.584C16.1562 28.1169 15.4375 27.5604 14.7708 26.9147L8.79167 21.1031H1.33333C0.972222 21.1031 0.659722 20.9726 0.395833 20.7115C0.131944 20.4505 0 20.1414 0 19.7842V5.93525C0 5.57803 0.131944 5.26891 0.395833 5.00787C0.659722 4.74682 0.972222 4.6163 1.33333 4.6163H10.1042C10.2986 4.42396 10.625 4.09422 11.0833 3.6271C11.5417 3.15997 11.8715 2.83023 12.0729 2.63789C12.2743 2.44554 12.5799 2.17076 12.9896 1.81355C13.3993 1.45633 13.75 1.19873 14.0417 1.04073C14.3333 0.882731 14.6875 0.707558 15.1042 0.515212C15.5208 0.322867 15.9514 0.188911 16.3958 0.113347C16.8403 0.0377823 17.3125 0 17.8125 0H20.25C21.625 0 22.8819 0.384692 24.0208 1.15408C25.1597 0.384692 26.4167 0 27.7917 0H31.2708C31.7569 0 32.2222 0.041217 32.6667 0.123651C33.1111 0.206085 33.5035 0.305693 33.8437 0.422474C34.184 0.539256 34.5417 0.721297 34.9167 0.968599C35.2917 1.2159 35.6007 1.42886 35.8437 1.60746C36.0868 1.78607 36.3854 2.05742 36.7396 2.4215C37.0938 2.78558 37.3646 3.0741 37.5521 3.28706C37.7396 3.50001 38.0243 3.82975 38.4062 4.27626C38.7882 4.72278 39.0764 5.05595 39.2708 5.27578H46.6667C47.0278 5.27578 47.3403 5.4063 47.6042 5.66734C47.8681 5.92838 48 6.23751 48 6.59472Z" fill="#C9A2E2"/>
</svg>
