<svg width="48" height="34" viewBox="0 0 48 34" fill="none" xmlns="http://www.w3.org/2000/svg">
<path d="M0 0V3.03557H28.5V25.8024H19.266C18.597 23.1933 16.278 21.249 13.5 21.249C10.722 21.249 8.403 23.1933 7.734 25.8024H6V18.2134H3V28.8379H7.734C8.403 31.447 10.722 33.3913 13.5 33.3913C16.278 33.3913 18.597 31.447 19.266 28.8379H31.734C32.403 31.447 34.722 33.3913 37.5 33.3913C40.278 33.3913 42.597 31.447 43.266 28.8379H48V16.4589L47.9055 16.2206L44.9055 7.11387L44.58 6.07115H31.5V0H0ZM1.5 6.07115V9.10672H15V6.07115H1.5ZM31.5 9.10672H42.4215L45 16.8854V25.8024H43.266C42.597 23.1933 40.278 21.249 37.5 21.249C34.722 21.249 32.403 23.1933 31.734 25.8024H31.5V9.10672ZM3 12.1423V15.1779H12V12.1423H3ZM13.5 24.2846C15.1755 24.2846 16.5 25.6248 16.5 27.3202C16.5 29.0155 15.1755 30.3557 13.5 30.3557C11.8245 30.3557 10.5 29.0155 10.5 27.3202C10.5 25.6248 11.8245 24.2846 13.5 24.2846ZM37.5 24.2846C39.1755 24.2846 40.5 25.6248 40.5 27.3202C40.5 29.0155 39.1755 30.3557 37.5 30.3557C35.8245 30.3557 34.5 29.0155 34.5 27.3202C34.5 25.6248 35.8245 24.2846 37.5 24.2846Z" fill="#8951AD"/>
</svg>
