<svg width="48" height="48" viewBox="0 0 48 48" fill="none" xmlns="http://www.w3.org/2000/svg">
<path d="M37.938 0.000424302C37.6217 0.00821656 37.3072 0.0504665 37 0.126425L4.5 8.68643C3.21538 9.02654 2.07853 9.78028 1.26515 10.8312C0.451777 11.882 0.00715432 13.1716 0 14.5004V42.0004C0 45.2904 2.71 48.0004 6 48.0004H42C45.29 48.0004 48 45.2904 48 42.0004V16.0004C48 12.7104 45.29 10.0004 42 10.0004H15.25L38 4.00042V8.00042H42V4.00042C42 1.75042 40.086 -0.0315757 37.938 0.000424302ZM6 14.0004H42C43.132 14.0004 44 14.8684 44 16.0004V42.0004C44 43.1324 43.132 44.0004 42 44.0004H6C4.868 44.0004 4 43.1324 4 42.0004V16.0004C4 14.8684 4.868 14.0004 6 14.0004ZM37 26.0004C36.2044 26.0004 35.4413 26.3165 34.8787 26.8791C34.3161 27.4417 34 28.2048 34 29.0004C34 29.7961 34.3161 30.5591 34.8787 31.1217C35.4413 31.6844 36.2044 32.0004 37 32.0004C37.7956 32.0004 38.5587 31.6844 39.1213 31.1217C39.6839 30.5591 40 29.7961 40 29.0004C40 28.2048 39.6839 27.4417 39.1213 26.8791C38.5587 26.3165 37.7956 26.0004 37 26.0004Z" fill="#8951AD"/>
</svg>
