<svg width="48" height="43" viewBox="0 0 48 43" fill="none" xmlns="http://www.w3.org/2000/svg">
<path d="M46.1059 30.248H14.2432L15.843 27.027L42.4247 26.9794C43.3236 26.9794 44.0941 26.3447 44.2546 25.4667L47.9358 5.09863C48.0321 4.56444 47.8876 4.01438 47.5345 3.59655C47.36 3.39091 47.1423 3.22526 46.8965 3.1111C46.6507 2.99694 46.3828 2.93699 46.1112 2.93542L12.2956 2.82435L12.0067 1.48093C11.8248 0.624106 11.0436 0 10.1554 0H1.88875C1.38782 0 0.907413 0.196704 0.553203 0.54684C0.198993 0.896976 0 1.37186 0 1.86703C0 2.3622 0.198993 2.83708 0.553203 3.18722C0.907413 3.53736 1.38782 3.73406 1.88875 3.73406H8.62513L9.88786 9.66836L12.9965 24.5464L8.99432 31.0043C8.78647 31.2816 8.66129 31.6109 8.63292 31.9549C8.60455 32.2988 8.67414 32.6438 8.8338 32.9507C9.15483 33.5801 9.80225 33.9768 10.5192 33.9768H13.8794C13.163 34.9173 12.7761 36.0628 12.7772 37.2401C12.7772 40.2337 15.2384 42.6667 18.2669 42.6667C21.2953 42.6667 23.7565 40.2337 23.7565 37.2401C23.7565 36.0607 23.3606 34.9129 22.6543 33.9768H31.2741C30.5578 34.9173 30.1708 36.0628 30.1719 37.2401C30.1719 40.2337 32.6332 42.6667 35.6616 42.6667C38.69 42.6667 41.1513 40.2337 41.1513 37.2401C41.1513 36.0607 40.7553 34.9129 40.049 33.9768H46.1112C47.1493 33.9768 48 33.1411 48 32.1097C47.9969 31.6151 47.796 31.1417 47.4412 30.793C47.0863 30.4442 46.6063 30.2483 46.1059 30.248V30.248ZM13.0822 6.50552L43.8908 6.60601L40.873 23.3088L16.6724 23.3511L13.0822 6.50552ZM18.2669 38.9115C17.3359 38.9115 16.5761 38.1604 16.5761 37.2401C16.5761 36.3198 17.3359 35.5688 18.2669 35.5688C19.1979 35.5688 19.9576 36.3198 19.9576 37.2401C19.9576 37.6834 19.7795 38.1085 19.4624 38.4219C19.1453 38.7354 18.7153 38.9115 18.2669 38.9115V38.9115ZM35.6616 38.9115C34.7306 38.9115 33.9708 38.1604 33.9708 37.2401C33.9708 36.3198 34.7306 35.5688 35.6616 35.5688C36.5926 35.5688 37.3524 36.3198 37.3524 37.2401C37.3524 37.6834 37.1742 38.1085 36.8571 38.4219C36.5401 38.7354 36.11 38.9115 35.6616 38.9115V38.9115Z" fill="#8951AD"/>
</svg>
