<svg width="48" height="48" viewBox="0 0 48 48" fill="none" xmlns="http://www.w3.org/2000/svg">
<g id="Atomic=Atom, Tipo=Icon, Estado=Standard, Caracteristica=HANDS">
<path id="Vector" d="M10.6667 26.3101C11.037 26.3101 11.2963 26.1636 11.4444 25.8705C11.5926 25.5774 11.5926 25.2843 11.4444 24.9912C11.2963 24.6981 11.037 24.5516 10.6667 24.5516C10.2963 24.5516 10.037 24.6981 9.88889 24.9912C9.74074 25.2843 9.74074 25.5774 9.88889 25.8705C10.037 26.1636 10.2963 26.3101 10.6667 26.3101ZM31.125 25.5133C31.0324 25.3942 30.8542 25.1652 30.5903 24.8263C30.3264 24.4874 30.1343 24.2401 30.0139 24.0844C29.8935 23.9287 29.7176 23.7043 29.4861 23.4112C29.2546 23.1181 29.0579 22.8754 28.8958 22.683C28.7338 22.4907 28.5463 22.2755 28.3333 22.0373C28.1204 21.7992 27.912 21.5748 27.7083 21.3641L25.9722 23.2876C25.2037 24.1485 24.2384 24.5699 23.0764 24.5516C21.9144 24.5332 20.963 24.0844 20.2222 23.2051C19.6944 22.5731 19.4329 21.8495 19.4375 21.0344C19.4421 20.2192 19.713 19.5002 20.25 18.8773L22.7083 16.0471C22.5046 15.9464 22.2685 15.8708 22 15.8204C21.7315 15.77 21.5116 15.7426 21.3403 15.738C21.169 15.7334 20.9074 15.7357 20.5556 15.7449C20.2037 15.754 19.9769 15.7586 19.875 15.7586C19.0231 15.7586 18.2917 16.0609 17.6806 16.6654L15.4861 18.8361H13.3333V26.3101C13.3796 26.3101 13.4769 26.3079 13.625 26.3033C13.7731 26.2987 13.875 26.2987 13.9306 26.3033C13.9861 26.3079 14.0764 26.317 14.2014 26.3308C14.3264 26.3445 14.4213 26.3651 14.4861 26.3926C14.5509 26.4201 14.6319 26.459 14.7292 26.5094C14.8264 26.5597 14.912 26.6216 14.9861 26.6948L19.1111 30.7066C20.1759 31.7233 21.2269 32.2317 22.2639 32.2317C22.9861 32.2317 23.5648 32.0164 24 31.5859C24.5278 31.7691 25.0486 31.7325 25.5625 31.476C26.0764 31.2195 26.412 30.8303 26.5694 30.3082C27.2546 30.3631 27.8426 30.1616 28.3333 29.7037C28.5185 29.5388 28.6852 29.3304 28.8333 29.0786C28.9815 28.8267 29.0463 28.5954 29.0278 28.3847C29.1204 28.4763 29.3194 28.5221 29.625 28.5221C30.0231 28.5221 30.3796 28.426 30.6944 28.2336C31.0093 28.0413 31.2384 27.7985 31.3819 27.5054C31.5255 27.2123 31.581 26.8849 31.5486 26.5231C31.5162 26.1613 31.375 25.8247 31.125 25.5133ZM33.3333 26.3101H34.6667V19.2758H33.375L31.1944 16.8028C30.5833 16.1066 29.8009 15.7586 28.8472 15.7586H26.5278C25.7037 15.7586 25.0278 16.0654 24.5 16.6791L21.5972 20.0177C21.338 20.3199 21.2083 20.6634 21.2083 21.0481C21.2083 21.4328 21.3333 21.7763 21.5833 22.0785C21.9815 22.5457 22.4907 22.7838 23.1111 22.793C23.7315 22.8021 24.2454 22.5777 24.6528 22.1197L27.3333 19.1246C27.5648 18.914 27.8125 18.8155 28.0764 18.8293C28.3403 18.843 28.5579 18.9666 28.7292 19.2002C28.9005 19.4338 28.9398 19.6925 28.8472 19.9765C28.9954 20.1505 29.2546 20.439 29.625 20.842C29.9954 21.245 30.2731 21.5565 30.4583 21.7763C30.7269 22.106 31.1088 22.5892 31.6042 23.2257C32.0995 23.8623 32.3981 24.2493 32.5 24.3867C32.9815 24.9912 33.2593 25.6324 33.3333 26.3101ZM37.3333 26.3101C37.7037 26.3101 37.963 26.1636 38.1111 25.8705C38.2593 25.5774 38.2593 25.2843 38.1111 24.9912C37.963 24.6981 37.7037 24.5516 37.3333 24.5516C36.963 24.5516 36.7037 24.6981 36.5556 24.9912C36.4074 25.2843 36.4074 25.5774 36.5556 25.8705C36.7037 26.1636 36.963 26.3101 37.3333 26.3101ZM40 18.3965V27.1894C40 27.4276 39.912 27.6337 39.7361 27.8077C39.5602 27.9817 39.3519 28.0687 39.1111 28.0687H33.0833C32.8333 28.6641 32.4537 29.1518 31.9444 29.5319C31.4352 29.9121 30.8565 30.1479 30.2083 30.2395C29.9028 30.6791 29.5301 31.0524 29.0903 31.3592C28.6505 31.6661 28.1759 31.8744 27.6667 31.9844C27.2778 32.4698 26.794 32.843 26.2153 33.1041C25.6366 33.3651 25.0417 33.4773 24.4306 33.4407C23.875 33.7521 23.2917 33.933 22.6806 33.9834C22.0694 34.0338 21.4792 33.9696 20.9097 33.791C20.3403 33.6124 19.7986 33.3674 19.2847 33.056C18.7708 32.7446 18.2917 32.3736 17.8472 31.9431L13.8611 28.0687H8.88889C8.64815 28.0687 8.43981 27.9817 8.26389 27.8077C8.08796 27.6337 8 27.4276 8 27.1894V17.9568C8 17.7187 8.08796 17.5126 8.26389 17.3386C8.43981 17.1645 8.64815 17.0775 8.88889 17.0775H14.7361C14.8657 16.9493 15.0833 16.7295 15.3889 16.4181C15.6944 16.1066 15.9144 15.8868 16.0486 15.7586C16.1829 15.6304 16.3866 15.4472 16.6597 15.209C16.9329 14.9709 17.1667 14.7992 17.3611 14.6938C17.5556 14.5885 17.7917 14.4717 18.0694 14.3435C18.3472 14.2152 18.6343 14.1259 18.9306 14.0756C19.2269 14.0252 19.5417 14 19.875 14H21.5C22.4167 14 23.2546 14.2565 24.0139 14.7694C24.7731 14.2565 25.6111 14 26.5278 14H28.8472C29.1713 14 29.4815 14.0275 29.7778 14.0824C30.0741 14.1374 30.3356 14.2038 30.5625 14.2816C30.7894 14.3595 31.0278 14.4809 31.2778 14.6457C31.5278 14.8106 31.7338 14.9526 31.8958 15.0716C32.0579 15.1907 32.2569 15.3716 32.4931 15.6143C32.7292 15.8571 32.9097 16.0494 33.0347 16.1914C33.1597 16.3333 33.3495 16.5532 33.6042 16.8508C33.8588 17.1485 34.0509 17.3706 34.1806 17.5172H39.1111C39.3519 17.5172 39.5602 17.6042 39.7361 17.7782C39.912 17.9523 40 18.1583 40 18.3965Z" fill="#C9A2E2"/>
</g>
</svg>
