<svg width="48" height="48" viewBox="0 0 48 48" fill="none" xmlns="http://www.w3.org/2000/svg">
<g id="Atomic=Atom, Tipo=Icon, Estado=Standard, Caracteristica=Instagram-White">
<g id="Group">
<path id="Vector" d="M23.998 15.8019C26.6692 15.8019 26.9827 15.8139 28.0385 15.8615C29.0149 15.9051 29.5428 16.0679 29.896 16.2068C30.3644 16.3894 30.6978 16.6037 31.047 16.953C31.3963 17.3022 31.6146 17.6356 31.7932 18.104C31.9282 18.4572 32.0949 18.9851 32.1385 19.9615C32.1862 21.0173 32.1981 21.3308 32.1981 24.002C32.1981 26.6732 32.1862 26.9867 32.1385 28.0425C32.0949 29.0189 31.9321 29.5467 31.7932 29.9C31.6106 30.3683 31.3963 30.7017 31.047 31.051C30.6978 31.4003 30.3644 31.6186 29.896 31.7972C29.5428 31.9321 29.0149 32.0988 28.0385 32.1425C26.9827 32.1901 26.6692 32.202 23.998 32.202C21.3269 32.202 21.0133 32.1901 19.9575 32.1425C18.9812 32.0988 18.4533 31.9361 18.1 31.7972C17.6317 31.6146 17.2983 31.4003 16.949 31.051C16.5997 30.7017 16.3814 30.3683 16.2028 29.9C16.0679 29.5467 15.9012 29.0189 15.8575 28.0425C15.8099 26.9867 15.798 26.6732 15.798 24.002C15.798 21.3308 15.8099 21.0173 15.8575 19.9615C15.9012 18.9851 16.0639 18.4572 16.2028 18.104C16.3854 17.6356 16.5997 17.3022 16.949 16.953C17.2983 16.6037 17.6317 16.3854 18.1 16.2068C18.4533 16.0718 18.9812 15.9051 19.9575 15.8615C21.0133 15.8099 21.3308 15.8019 23.998 15.8019ZM23.998 14C21.2832 14 20.9419 14.0119 19.8742 14.0595C18.8105 14.1072 18.0841 14.2778 17.4491 14.5239C16.7902 14.7779 16.2346 15.1232 15.6789 15.6789C15.1232 16.2346 14.7819 16.7942 14.5239 17.4491C14.2778 18.0841 14.1072 18.8105 14.0595 19.8782C14.0119 20.9419 14 21.2832 14 23.998C14 26.7128 14.0119 27.0542 14.0595 28.1219C14.1072 29.1856 14.2778 29.9119 14.5239 30.5509C14.7779 31.2098 15.1232 31.7654 15.6789 32.3211C16.2346 32.8768 16.7942 33.2181 17.4491 33.4761C18.0841 33.7222 18.8105 33.8928 19.8782 33.9405C20.9458 33.9881 21.2832 34 24.002 34C26.7208 34 27.0582 33.9881 28.1258 33.9405C29.1895 33.8928 29.9159 33.7222 30.5549 33.4761C31.2137 33.2221 31.7694 32.8768 32.3251 32.3211C32.8807 31.7654 33.2221 31.2058 33.4801 30.5509C33.7261 29.9159 33.8968 29.1895 33.9444 28.1219C33.9921 27.0542 34.004 26.7168 34.004 23.998C34.004 21.2792 33.9921 20.9419 33.9444 19.8742C33.8968 18.8105 33.7261 18.0841 33.4801 17.4451C33.226 16.7863 32.8807 16.2306 32.3251 15.6749C31.7694 15.1193 31.2098 14.7779 30.5549 14.5199C29.9198 14.2739 29.1935 14.1032 28.1258 14.0556C27.0542 14.0119 26.7128 14 23.998 14Z" fill="white"/>
<path id="Vector_2" d="M23.997 18.865C21.1631 18.865 18.8611 21.1631 18.8611 24.0009C18.8611 26.8388 21.1592 29.1369 23.997 29.1369C26.8349 29.1369 29.133 26.8388 29.133 24.0009C29.133 21.1631 26.8349 18.865 23.997 18.865ZM23.997 27.331C22.1554 27.331 20.663 25.8386 20.663 23.997C20.663 22.1553 22.1554 20.663 23.997 20.663C25.8387 20.663 27.331 22.1553 27.331 23.997C27.331 25.8386 25.8387 27.331 23.997 27.331Z" fill="white"/>
<path id="Vector_3" d="M29.336 19.8579C29.9978 19.8579 30.5344 19.3213 30.5344 18.6595C30.5344 17.9976 29.9978 17.4611 29.336 17.4611C28.6741 17.4611 28.1376 17.9976 28.1376 18.6595C28.1376 19.3213 28.6741 19.8579 29.336 19.8579Z" fill="white"/>
</g>
</g>
</svg>
