<svg width="48" height="48" viewBox="0 0 48 48" fill="none" xmlns="http://www.w3.org/2000/svg">
<g id="Atomic=Atom, Tipo=Icon, Estado=Standard, Caracteristica=la:shopping-cart">
<g id="Group 1">
<path id="Vector" d="M14.8421 16C14.3789 16 14 16.36 14 16.8C14 17.24 14.3789 17.6 14.8421 17.6H16.7107L18.9213 26C19.1082 26.712 19.7802 27.2 20.5524 27.2H30.2105C30.9701 27.2 31.6152 26.7216 31.8156 26.0248L34 18.4H19.8947L20.3158 20H31.8156L30.2105 25.6H20.5524L18.3419 17.2C18.2508 16.8555 18.0406 16.5499 17.745 16.3324C17.4494 16.1148 17.0855 15.9978 16.7116 16H14.8421ZM29.1579 27.2C27.7726 27.2 26.6316 28.284 26.6316 29.6C26.6316 30.916 27.7726 32 29.1579 32C30.5432 32 31.6842 30.916 31.6842 29.6C31.6842 28.284 30.5432 27.2 29.1579 27.2ZM21.5789 27.2C20.1937 27.2 19.0526 28.284 19.0526 29.6C19.0526 30.916 20.1937 32 21.5789 32C22.9642 32 24.1053 30.916 24.1053 29.6C24.1053 28.284 22.9642 27.2 21.5789 27.2ZM21.5789 28.8C22.0531 28.8 22.4211 29.1504 22.4211 29.6C22.4211 30.0504 22.0522 30.4 21.5789 30.4C21.1048 30.4 20.7368 30.0496 20.7368 29.6C20.7368 29.1496 21.1057 28.8 21.5789 28.8ZM29.1579 28.8C29.632 28.8 30 29.1504 30 29.6C30 30.0504 29.6312 30.4 29.1579 30.4C28.6838 30.4 28.3158 30.0496 28.3158 29.6C28.3158 29.1496 28.6846 28.8 29.1579 28.8Z" fill="white"/>
</g>
</g>
</svg>
