<svg width="48" height="48" viewBox="0 0 48 48" fill="none" xmlns="http://www.w3.org/2000/svg">
<g id="Atomic=Atom, Tipo=Icon, Estado=Standard, Caracteristica=la:shopping-cartant-design:shopping-cart-outlined">
<path id="Vector" d="M40.5794 30.686H16.6824L17.8823 28.2702L37.8185 28.2345C38.4927 28.2345 39.0706 27.7585 39.1909 27.1L41.9518 11.824C42.0241 11.4233 41.9157 11.0108 41.6509 10.6974C41.52 10.5432 41.3567 10.4189 41.1724 10.3333C40.9881 10.2477 40.7871 10.2027 40.5834 10.2016L15.2217 10.1183L15.005 9.1107C14.8686 8.46808 14.2827 8 13.6165 8H7.41656C7.04087 8 6.68056 8.14753 6.4149 8.41013C6.14924 8.67273 6 9.0289 6 9.40027C6 9.77165 6.14924 10.1278 6.4149 10.3904C6.68056 10.653 7.04087 10.8005 7.41656 10.8005H12.4688L13.4159 15.2513L15.7474 26.4098L12.7457 31.2533C12.5899 31.4612 12.496 31.7082 12.4747 31.9661C12.4534 32.2241 12.5056 32.4828 12.6253 32.713C12.8661 33.1851 13.3517 33.4826 13.8894 33.4826H16.4095C15.8723 34.188 15.5821 35.0471 15.5829 35.9301C15.5829 38.1753 17.4288 40 19.7001 40C21.9715 40 23.8174 38.1753 23.8174 35.9301C23.8174 35.0455 23.5205 34.1847 22.9907 33.4826H29.4556C28.9183 34.188 28.6281 35.0471 28.6289 35.9301C28.6289 38.1753 30.4749 40 32.7462 40C35.0175 40 36.8634 38.1753 36.8634 35.9301C36.8634 35.0455 36.5665 34.1847 36.0368 33.4826H40.5834C41.3619 33.4826 42 32.8558 42 32.0823C41.9977 31.7113 41.847 31.3563 41.5809 31.0947C41.3147 30.8331 40.9547 30.6862 40.5794 30.686ZM15.8116 12.8791L38.9181 12.9545L36.6548 25.4816L18.5043 25.5133L15.8116 12.8791ZM19.7001 37.1836C19.0019 37.1836 18.4321 36.6203 18.4321 35.9301C18.4321 35.2399 19.0019 34.6766 19.7001 34.6766C20.3984 34.6766 20.9682 35.2399 20.9682 35.9301C20.9682 36.2625 20.8346 36.5814 20.5968 36.8164C20.359 37.0515 20.0365 37.1836 19.7001 37.1836ZM32.7462 37.1836C32.0479 37.1836 31.4781 36.6203 31.4781 35.9301C31.4781 35.2399 32.0479 34.6766 32.7462 34.6766C33.4444 34.6766 34.0143 35.2399 34.0143 35.9301C34.0143 36.2625 33.8807 36.5814 33.6429 36.8164C33.405 37.0515 33.0825 37.1836 32.7462 37.1836Z" fill="#C9A2E2"/>
</g>
</svg>
