<svg width="48" height="48" viewBox="0 0 48 48" fill="none" xmlns="http://www.w3.org/2000/svg">
<g id="Atomic=Atom, Tipo=Icon, Estado=Standard, Caracteristica=la:shopping-cartla:wallet">
<g id="Group 5">
<path id="Vector" d="M33.292 8.00016C33.0811 8.00536 32.8714 8.03352 32.6667 8.08416L11 13.7908C10.1436 14.0176 9.38569 14.5201 8.84344 15.2207C8.30118 15.9212 8.00477 16.7809 8 17.6668V36.0002C8 38.1935 9.80667 40.0002 12 40.0002H36C38.1933 40.0002 40 38.1935 40 36.0002V18.6668C40 16.4735 38.1933 14.6668 36 14.6668H18.1667L33.3333 10.6668V13.3335H36V10.6668C36 9.16683 34.724 7.97883 33.292 8.00016ZM12 17.3335H36C36.7547 17.3335 37.3333 17.9122 37.3333 18.6668V36.0002C37.3333 36.7548 36.7547 37.3335 36 37.3335H12C11.2453 37.3335 10.6667 36.7548 10.6667 36.0002V18.6668C10.6667 17.9122 11.2453 17.3335 12 17.3335ZM32.6667 25.3335C32.1362 25.3335 31.6275 25.5442 31.2525 25.9193C30.8774 26.2944 30.6667 26.8031 30.6667 27.3335C30.6667 27.8639 30.8774 28.3726 31.2525 28.7477C31.6275 29.1228 32.1362 29.3335 32.6667 29.3335C33.1971 29.3335 33.7058 29.1228 34.0809 28.7477C34.456 28.3726 34.6667 27.8639 34.6667 27.3335C34.6667 26.8031 34.456 26.2944 34.0809 25.9193C33.7058 25.5442 33.1971 25.3335 32.6667 25.3335Z" fill="#C9A2E2"/>
</g>
</g>
</svg>
