<svg width="48" height="48" viewBox="0 0 48 48" fill="none" xmlns="http://www.w3.org/2000/svg">
<g id="Atomic=Atom, Tipo=Icon, Estado=Standard, Caracteristica=la:shopping-cartla:shipping-fast">
<g id="Group 6">
<path id="Vector" d="M1 8V10.9091H28.3125V32.7273H19.4632C18.8221 30.2269 16.5997 28.3636 13.9375 28.3636C11.2753 28.3636 9.05288 30.2269 8.41175 32.7273H6.75V25.4545H3.875V35.6364H8.41175C9.05288 38.1367 11.2753 40 13.9375 40C16.5997 40 18.8221 38.1367 19.4632 35.6364H31.4118C32.0529 38.1367 34.2752 40 36.9375 40C39.5998 40 41.8221 38.1367 42.4632 35.6364H47V23.7731L46.9094 23.5447L44.0344 14.8175L43.7225 13.8182H31.1875V8H1ZM2.4375 13.8182V16.7273H15.375V13.8182H2.4375ZM31.1875 16.7273H41.6539L44.125 24.1818V32.7273H42.4632C41.8221 30.2269 39.5998 28.3636 36.9375 28.3636C34.2752 28.3636 32.0529 30.2269 31.4118 32.7273H31.1875V16.7273ZM3.875 19.6364V22.5455H12.5V19.6364H3.875ZM13.9375 31.2727C15.5432 31.2727 16.8125 32.5571 16.8125 34.1818C16.8125 35.8065 15.5432 37.0909 13.9375 37.0909C12.3318 37.0909 11.0625 35.8065 11.0625 34.1818C11.0625 32.5571 12.3318 31.2727 13.9375 31.2727ZM36.9375 31.2727C38.5432 31.2727 39.8125 32.5571 39.8125 34.1818C39.8125 35.8065 38.5432 37.0909 36.9375 37.0909C35.3318 37.0909 34.0625 35.8065 34.0625 34.1818C34.0625 32.5571 35.3318 31.2727 36.9375 31.2727Z" fill="#C9A2E2"/>
</g>
</g>
</svg>
