<svg width="48" height="48" viewBox="0 0 48 48" fill="none" xmlns="http://www.w3.org/2000/svg">
<g id="Atomic=Atom, Tipo=Icon, Estado=Standard, Caracteristica=radix-icons:hamburger-menu">
<g id="Group">
<path id="Vector" fill-rule="evenodd" clip-rule="evenodd" d="M14.7692 17C14.5652 17 14.3696 17.0819 14.2253 17.2278C14.081 17.3737 14 17.5715 14 17.7778C14 17.9841 14.081 18.1819 14.2253 18.3277C14.3696 18.4736 14.5652 18.5556 14.7692 18.5556H33.2308C33.4348 18.5556 33.6304 18.4736 33.7747 18.3277C33.919 18.1819 34 17.9841 34 17.7778C34 17.5715 33.919 17.3737 33.7747 17.2278C33.6304 17.0819 33.4348 17 33.2308 17H14.7692ZM14 24C14 23.7937 14.081 23.5959 14.2253 23.45C14.3696 23.3042 14.5652 23.2222 14.7692 23.2222H33.2308C33.4348 23.2222 33.6304 23.3042 33.7747 23.45C33.919 23.5959 34 23.7937 34 24C34 24.2063 33.919 24.4041 33.7747 24.55C33.6304 24.6958 33.4348 24.7778 33.2308 24.7778H14.7692C14.5652 24.7778 14.3696 24.6958 14.2253 24.55C14.081 24.4041 14 24.2063 14 24ZM14 30.2222C14 30.0159 14.081 29.8181 14.2253 29.6722C14.3696 29.5264 14.5652 29.4444 14.7692 29.4444H33.2308C33.4348 29.4444 33.6304 29.5264 33.7747 29.6722C33.919 29.8181 34 30.0159 34 30.2222C34 30.4285 33.919 30.6263 33.7747 30.7722C33.6304 30.9181 33.4348 31 33.2308 31H14.7692C14.5652 31 14.3696 30.9181 14.2253 30.7722C14.081 30.6263 14 30.4285 14 30.2222Z" fill="white"/>
</g>
</g>
</svg>
