<svg width="48" height="48" viewBox="0 0 48 48" fill="none" xmlns="http://www.w3.org/2000/svg">
<g id="Atomic=Atom, Tipo=Icon, Estado=Standard, Caracteristica=WhatsApp-White">
<g id="Atomic=Atom, Tipo=Icon, Estado=Standard, Caracteristica=WhatsApp-White_2">
<g id="Group">
<path id="Vector" fill-rule="evenodd" clip-rule="evenodd" d="M31.0788 16.9081C29.2029 15.0311 26.7017 14 24.0382 14C18.5537 14 14.0859 18.4476 14.0811 23.9073C14.0811 25.656 14.5394 27.3571 15.4081 28.8634L14 34L19.2792 32.622C20.7351 33.4108 22.3723 33.8289 24.0382 33.8289H24.043C29.5274 33.8289 33.9952 29.3813 34 23.9168C33.9952 21.2701 32.9594 18.7802 31.0788 16.9081ZM24.0382 32.1516C22.5489 32.1516 21.0931 31.7524 19.8234 31.0017L19.5227 30.8211L16.3914 31.6384L17.2267 28.5973L17.031 28.2837C16.2005 26.9722 15.7661 25.4564 15.7661 23.9026C15.7661 19.3694 19.4797 15.6726 24.043 15.6726C26.253 15.6726 28.3294 16.5327 29.895 18.0865C31.4558 19.645 32.315 21.712 32.315 23.9121C32.3103 28.4595 28.5967 32.1516 24.0382 32.1516ZM28.5776 25.9838C28.3294 25.8603 27.1074 25.2616 26.8783 25.1761C26.6492 25.0953 26.4821 25.0525 26.3198 25.2996C26.1527 25.5467 25.6754 26.1074 25.5322 26.2689C25.389 26.4353 25.241 26.4543 24.9928 26.3307C24.7446 26.2072 23.9427 25.9458 22.9928 25.1C22.253 24.4443 21.7566 23.6317 21.6086 23.3847C21.4654 23.1376 21.5943 23.0045 21.7184 22.881C21.8282 22.7717 21.9666 22.5911 22.0907 22.4486C22.2148 22.306 22.2578 22.2015 22.3389 22.0352C22.42 21.8689 22.3819 21.7263 22.3198 21.6028C22.2578 21.4792 21.7613 20.258 21.5513 19.7638C21.3508 19.2792 21.1456 19.3457 20.9928 19.3409C20.8496 19.3314 20.6826 19.3314 20.5155 19.3314C20.3484 19.3314 20.0811 19.3932 19.852 19.6403C19.6229 19.8874 18.9833 20.4861 18.9833 21.7073C18.9833 22.9285 19.8759 24.1022 20 24.2685C20.1241 24.4348 21.7518 26.9342 24.2482 28.0081C24.8401 28.2647 25.3031 28.4167 25.6659 28.5308C26.2625 28.7208 26.8019 28.6923 27.2315 28.6306C27.7088 28.5593 28.7017 28.0318 28.9117 27.4521C29.1169 26.8724 29.1169 26.3782 29.0549 26.2737C28.9928 26.1692 28.8258 26.1074 28.5776 25.9838Z" fill="white"/>
</g>
</g>
</g>
</svg>
